Title                            : Unstoppable
Year                             : 2010
Genre                            : Action | Drama | Thriller
iMDB URL                         : http://www.imdb.com/title/tt0477080/

Complete name                    : Unstoppable.2010.BRRIP.720P.H264-ZEKTORM.mp4
Format                           : MPEG-4
Format profile                   : Base Media
Codec ID                         : isom
File size                        : 2.25 GiB
Duration                         : 1h 38mn
Overall bit rate                 : 3267 Kbps
Subtitles                        : English (Format: srt)

Video
ID                               : 1
Format                           : AVC
Format/Info                      : Advanced Video Codec
Format profile                   : High@L4.0
Format settings, CABAC           : Yes
Format settings, ReFrames        : 8 frames
Codec ID                         : avc1
Codec ID/Info                    : Advanced Video Coding
Duration                         : 1h 38mn
Bit rate mode                    : Variable
Bit rate                         : 2838 Kbps
Maximum bit rate                 : 14.0 Mbps
Width                            : 1280 pixels
Height                           : 528 pixels
Display aspect ratio             : 2.424
Frame rate mode                  : Constant
Frame rate                       : 23.976 fps
Resolution                       : 24 bits
Colorimetry                      : 4:2:0
Scan type                        : Progressive
Bits/(Pixel*Frame)               : 0.175
Stream size                      : 1.95 GiB (87%)
Title                            : Video
Writing library                  : x264

Audio
ID                               : 2
Format                           : AAC
Format/Info                      : Advanced Audio Codec
Format version                   : Version 4
Format profile                   : LC
Format settings, SBR             : No
Codec ID                         : 40
Duration                         : 1h 38mn
Bit rate mode                    : Variable
Bit rate                         : 425 Kbps
Maximum bit rate                 : 530 Kbps
Channel(s)                       : 6 channels
Channel positions                : Front: L C R, Rear: L R, LFE
Sampling rate                    : 48.0 KHz
Resolution                       : 16 bits
Stream size                      : 299 MiB (13%)
Language                         : English




 
http://img340.imageshack.us/img340/6972/snapu1.png
 
http://img407.imageshack.us/img407/2022/snapu2.png
 
http://img830.imageshack.us/img830/3117/snapu3.png
 
http://img696.imageshack.us/img696/8902/snapu4.png
 
http://img806.imageshack.us/img806/3310/snapu5.png
